<svg width="142" height="2" viewBox="0 0 142 2" fill="none" xmlns="http://www.w3.org/2000/svg">
<path opacity="0.2" fill-rule="evenodd" clip-rule="evenodd" d="M0 0.5H1.97222V1.5H0V0.5ZM4.89608 0.5H7.84751V1.5H4.89608V0.5ZM10.7714 0.5H13.7228V1.5H10.7714V0.5ZM16.6467 0.5H19.5981V1.5H16.6467V0.5ZM22.522 0.5H25.4734V1.5H22.522V0.5ZM28.3972 0.5H31.3487V1.5H28.3972V0.5ZM34.2725 0.5H37.224V1.5H34.2725V0.5ZM40.1478 0.5H43.0993V1.5H40.1478V0.5ZM46.0231 0.5H48.9745V1.5H46.0231V0.5ZM51.8984 0.5H54.8498V1.5H51.8984V0.5ZM57.7737 0.5H60.7251V1.5H57.7737V0.5ZM63.649 0.5H66.6004V1.5H63.649V0.5ZM69.5243 0.5H72.4757V1.5H69.5243V0.5ZM75.3996 0.5H78.351V1.5H75.3996V0.5ZM81.2748 0.5H84.2263V1.5H81.2748V0.5ZM87.1501 0.5H90.1016V1.5H87.1501V0.5ZM93.0254 0.5H95.9769V1.5H93.0254V0.5ZM98.9007 0.5H101.852V1.5H98.9007V0.5ZM104.776 0.5H107.727V1.5H104.776V0.5ZM110.651 0.5H113.603V1.5H110.651V0.5ZM116.527 0.5H119.478V1.5H116.527V0.5ZM122.402 0.5H125.353V1.5H122.402V0.5ZM128.277 0.5H131.229V1.5H128.277V0.5ZM134.152 0.5H137.104V1.5H134.152V0.5ZM140.028 0.5H142V1.5H140.028V0.5Z" fill="#0E73F6"/>
</svg>
