<svg width="16" height="16" fill="none" xmlns="http://www.w3.org/2000/svg"><path d="M7.493.016C6.491.102 5.721.285 4.899.631A7.998 7.998 0 0 0 .108 9.298a8.008 8.008 0 0 0 3.465 5.361 7.998 7.998 0 0 0 5.725 1.233 8.011 8.011 0 0 0 6.261-5.28c1.228-3.518-.179-7.457-3.365-9.42A8.104 8.104 0 0 0 9 .067C8.694.026 7.745-.006 7.493.016m.938 3.085c.177.087.402.316.484.492.048.105.058.175.058.407 0 .251-.007.295-.072.428a1.019 1.019 0 0 1-1.053.558 1.039 1.039 0 0 1-.747-.556 1.157 1.157 0 0 1-.051-.729c.08-.274.335-.541.612-.64.211-.075.572-.056.769.04m-.024 3.984c.177.082.405.307.493.485l.073.15.014 1.64L9 11l.142.017c.305.038.615.261.751.543.236.486.038 1.088-.434 1.319-.248.122-.412.141-1.072.128-.517-.01-.604-.018-.728-.067a1.05 1.05 0 0 1-.596-.602c-.044-.126-.048-.273-.049-1.73l-.001-1.592-.1-.017c-.307-.052-.545-.186-.705-.399a.991.991 0 0 1-.027-1.158.92.92 0 0 1 .448-.363c.156-.065.164-.066.904-.059.705.006.754.01.874.065" fill="#84919A" fill-rule="evenodd"/></svg>